{
    "asset" : {
        "generator" : "Khronos glTF Blender I/O v1.1.46",
        "version" : "2.0"
    },
    "scene" : 0,
    "scenes" : [
        {
            "name" : "Scene",
            "nodes" : [
                0,
                1,
                10
            ]
        }
    ],
    "nodes" : [
        {
            "name" : "Light",
            "rotation" : [
                0.16907575726509094,
                0.7558803558349609,
                -0.27217137813568115,
                0.570947527885437
            ],
            "translation" : [
                4.076245307922363,
                5.903861999511719,
                -1.0054539442062378
            ]
        },
        {
            "name" : "Camera",
            "rotation" : [
                0.483536034822464,
                0.33687159419059753,
                -0.20870360732078552,
                0.7804827094078064
            ],
            "translation" : [
                7.358891487121582,
                4.958309173583984,
                6.925790786743164
            ]
        },
        {
            "name" : "Bone.002",
            "rotation" : [
                0.14330853521823883,
                -0.0768861249089241,
                -0.5622786283493042,
                0.8107983469963074
            ],
            "scale" : [
                1.000000238418579,
                1,
                1.0000001192092896
            ],
            "translation" : [
                -2.62516550719738e-08,
                0.47344449162483215,
                9.313225746154785e-10
            ]
        },
        {
            "children" : [
                2
            ],
            "name" : "Bone.001",
            "rotation" : [
                -0.111802838742733,
                0.040814828127622604,
                0.14393743872642517,
                0.9824033379554749
            ],
            "scale" : [
                0.9999999403953552,
                0.9999999403953552,
                0.9999999403953552
            ],
            "translation" : [
                1.1395400179026183e-09,
                1.009222149848938,
                -9.770246833795682e-10
            ]
        },
        {
            "name" : "Bone.003",
            "rotation" : [
                0.9970747232437134,
                -0.0011991048231720924,
                -0.06650574505329132,
                0.037651773542165756
            ],
            "scale" : [
                1.0000001192092896,
                0.9999998211860657,
                0.9999460577964783
            ],
            "translation" : [
                0.0033797184005379677,
                -0.006765605881810188,
                -0.01476321555674076
            ]
        },
        {
            "children" : [
                4
            ],
            "name" : "Bone.005",
            "rotation" : [
                -0.5666313171386719,
                0.39817681908607483,
                0.37659740447998047,
                0.6152711510658264
            ],
            "scale" : [
                0.9999997615814209,
                0.9999998211860657,
                0.9999998211860657
            ],
            "translation" : [
                0.5212149620056152,
                0.8198525309562683,
                0.08770383894443512
            ]
        },
        {
            "name" : "Bone.006",
            "rotation" : [
                -0.5673565864562988,
                0.362223356962204,
                0.37639909982681274,
                0.6365724205970764
            ],
            "scale" : [
                0.9999999403953552,
                0.9999998807907104,
                0.9999999403953552
            ],
            "translation" : [
                0.3733440339565277,
                0.8547919392585754,
                0.3234036862850189
            ]
        },
        {
            "children" : [
                3,
                5,
                6
            ],
            "name" : "Bone",
            "rotation" : [
                -0.003991812467575073,
                3.559128813890311e-08,
                -0.006086587440222502,
                0.9999735355377197
            ]
        },
        {
            "name" : "Bone.004",
            "rotation" : [
                -0.5637439489364624,
                0.3791106641292572,
                0.38348302245140076,
                0.6256266832351685
            ],
            "scale" : [
                1.0000001192092896,
                1,
                1
            ],
            "translation" : [
                0.8265548944473267,
                0.8184430599212646,
                0.5189529061317444
            ]
        },
        {
            "mesh" : 0,
            "name" : "cow",
            "skin" : 0
        },
        {
            "children" : [
                9,
                7,
                8
            ],
            "name" : "Armature",
            "rotation" : [
                0.15128587186336517,
                0.13571925461292267,
                -0.6603273749351501,
                0.722952663898468
            ],
            "scale" : [
                0.6685388088226318,
                0.6685386300086975,
                0.6685388684272766
            ],
            "translation" : [
                -0.17183265089988708,
                0.6328688263893127,
                -0.015403598546981812
            ]
        }
    ],
    "animations" : [
        {
            "channels" : [
                {
                    "sampler" : 0,
                    "target" : {
                        "node" : 7,
                        "path" : "translation"
                    }
                },
                {
                    "sampler" : 1,
                    "target" : {
                        "node" : 7,
                        "path" : "rotation"
                    }
                },
                {
                    "sampler" : 2,
                    "target" : {
                        "node" : 7,
                        "path" : "scale"
                    }
                },
                {
                    "sampler" : 3,
                    "target" : {
                        "node" : 3,
                        "path" : "translation"
                    }
                },
                {
                    "sampler" : 4,
                    "target" : {
                        "node" : 3,
                        "path" : "rotation"
                    }
                },
                {
                    "sampler" : 5,
                    "target" : {
                        "node" : 3,
                        "path" : "scale"
                    }
                },
                {
                    "sampler" : 6,
                    "target" : {
                        "node" : 2,
                        "path" : "translation"
                    }
                },
                {
                    "sampler" : 7,
                    "target" : {
                        "node" : 2,
                        "path" : "rotation"
                    }
                },
                {
                    "sampler" : 8,
                    "target" : {
                        "node" : 2,
                        "path" : "scale"
                    }
                },
                {
                    "sampler" : 9,
                    "target" : {
                        "node" : 5,
                        "path" : "translation"
                    }
                },
                {
                    "sampler" : 10,
                    "target" : {
                        "node" : 5,
                        "path" : "rotation"
                    }
                },
                {
                    "sampler" : 11,
                    "target" : {
                        "node" : 5,
                        "path" : "scale"
                    }
                },
                {
                    "sampler" : 12,
                    "target" : {
                        "node" : 4,
                        "path" : "translation"
                    }
                },
                {
                    "sampler" : 13,
                    "target" : {
                        "node" : 4,
                        "path" : "rotation"
                    }
                },
                {
                    "sampler" : 14,
                    "target" : {
                        "node" : 4,
                        "path" : "scale"
                    }
                },
                {
                    "sampler" : 15,
                    "target" : {
                        "node" : 6,
                        "path" : "translation"
                    }
                },
                {
                    "sampler" : 16,
                    "target" : {
                        "node" : 6,
                        "path" : "rotation"
                    }
                },
                {
                    "sampler" : 17,
                    "target" : {
                        "node" : 6,
                        "path" : "scale"
                    }
                },
                {
                    "sampler" : 18,
                    "target" : {
                        "node" : 8,
                        "path" : "translation"
                    }
                },
                {
                    "sampler" : 19,
                    "target" : {
                        "node" : 8,
                        "path" : "rotation"
                    }
                },
                {
                    "sampler" : 20,
                    "target" : {
                        "node" : 8,
                        "path" : "scale"
                    }
                }
            ],
            "name" : "ArmatureAction",
            "samplers" : [
                {
                    "input" : 7,
                    "interpolation" : "LINEAR",
                    "output" : 8
                },
                {
                    "input" : 7,
                    "interpolation" : "LINEAR",
                    "output" : 9
                },
                {
                    "input" : 7,
                    "interpolation" : "LINEAR",
                    "output" : 10
                },
                {
                    "input" : 7,
                    "interpolation" : "LINEAR",
                    "output" : 11
                },
                {
                    "input" : 7,
                    "interpolation" : "LINEAR",
                    "output" : 12
                },
                {
                    "input" : 7,
                    "interpolation" : "LINEAR",
                    "output" : 13
                },
                {
                    "input" : 7,
                    "interpolation" : "LINEAR",
                    "output" : 14
                },
                {
                    "input" : 7,
                    "interpolation" : "LINEAR",
                    "output" : 15
                },
                {
                    "input" : 7,
                    "interpolation" : "LINEAR",
                    "output" : 16
                },
                {
                    "input" : 7,
                    "interpolation" : "LINEAR",
                    "output" : 17
                },
                {
                    "input" : 7,
                    "interpolation" : "LINEAR",
                    "output" : 18
                },
                {
                    "input" : 7,
                    "interpolation" : "LINEAR",
                    "output" : 19
                },
                {
                    "input" : 7,
                    "interpolation" : "LINEAR",
                    "output" : 20
                },
                {
                    "input" : 7,
                    "interpolation" : "LINEAR",
                    "output" : 21
                },
                {
                    "input" : 7,
                    "interpolation" : "LINEAR",
                    "output" : 22
                },
                {
                    "input" : 7,
                    "interpolation" : "LINEAR",
                    "output" : 23
                },
                {
                    "input" : 7,
                    "interpolation" : "LINEAR",
                    "output" : 24
                },
                {
                    "input" : 7,
                    "interpolation" : "LINEAR",
                    "output" : 25
                },
                {
                    "input" : 7,
                    "interpolation" : "LINEAR",
                    "output" : 26
                },
                {
                    "input" : 7,
                    "interpolation" : "LINEAR",
                    "output" : 27
                },
                {
                    "input" : 7,
                    "interpolation" : "LINEAR",
                    "output" : 28
                }
            ]
        }
    ],
    "materials" : [
        {
            "doubleSided" : true,
            "emissiveFactor" : [
                0,
                0,
                0
            ],
            "name" : "Default OBJ",
            "pbrMetallicRoughness" : {
                "baseColorTexture" : {
                    "index" : 0,
                    "texCoord" : 0
                },
                "metallicFactor" : 0,
                "roughnessFactor" : 0.5
            }
        }
    ],
    "meshes" : [
        {
            "name" : "cow",
            "primitives" : [
                {
                    "attributes" : {
                        "POSITION" : 0,
                        "NORMAL" : 1,
                        "TEXCOORD_0" : 2,
                        "JOINTS_0" : 3,
                        "WEIGHTS_0" : 4
                    },
                    "indices" : 5,
                    "material" : 0
                }
            ]
        }
    ],
    "textures" : [
        {
            "source" : 0
        }
    ],
    "images" : [
        {
            "bufferView" : 6,
            "mimeType" : "image/png",
            "name" : "cowPattern"
        }
    ],
    "skins" : [
        {
            "inverseBindMatrices" : 6,
            "joints" : [
                7,
                3,
                2,
                5,
                4,
                6,
                8
            ],
            "name" : "Armature"
        }
    ],
    "accessors" : [
        {
            "bufferView" : 0,
            "componentType" : 5126,
            "count" : 2154,
            "max" : [
                0.9857557415962219,
                0.908703088760376,
                0.2187352031469345
            ],
            "min" : [
                -0.47028619050979614,
                0.005903973244130611,
                -0.21954169869422913
            ],
            "type" : "VEC3"
        },
        {
            "bufferView" : 1,
            "componentType" : 5126,
            "count" : 2154,
            "type" : "VEC3"
        },
        {
            "bufferView" : 2,
            "componentType" : 5126,
            "count" : 2154,
            "type" : "VEC2"
        },
        {
            "bufferView" : 3,
            "componentType" : 5123,
            "count" : 2154,
            "type" : "VEC4"
        },
        {
            "bufferView" : 4,
            "componentType" : 5126,
            "count" : 2154,
            "type" : "VEC4"
        },
        {
            "bufferView" : 5,
            "componentType" : 5123,
            "count" : 2154,
            "type" : "SCALAR"
        },
        {
            "bufferView" : 7,
            "componentType" : 5126,
            "count" : 7,
            "type" : "MAT4"
        },
        {
            "bufferView" : 8,
            "componentType" : 5126,
            "count" : 69,
            "max" : [
                2.875
            ],
            "min" : [
                0.041666666666666664
            ],
            "type" : "SCALAR"
        },
        {
            "bufferView" : 9,
            "componentType" : 5126,
            "count" : 69,
            "type" : "VEC3"
        },
        {
            "bufferView" : 10,
            "componentType" : 5126,
            "count" : 69,
            "type" : "VEC4"
        },
        {
            "bufferView" : 11,
            "componentType" : 5126,
            "count" : 69,
            "type" : "VEC3"
        },
        {
            "bufferView" : 12,
            "componentType" : 5126,
            "count" : 69,
            "type" : "VEC3"
        },
        {
            "bufferView" : 13,
            "componentType" : 5126,
            "count" : 69,
            "type" : "VEC4"
        },
        {
            "bufferView" : 14,
            "componentType" : 5126,
            "count" : 69,
            "type" : "VEC3"
        },
        {
            "bufferView" : 15,
            "componentType" : 5126,
            "count" : 69,
            "type" : "VEC3"
        },
        {
            "bufferView" : 16,
            "componentType" : 5126,
            "count" : 69,
            "type" : "VEC4"
        },
        {
            "bufferView" : 17,
            "componentType" : 5126,
            "count" : 69,
            "type" : "VEC3"
        },
        {
            "bufferView" : 18,
            "componentType" : 5126,
            "count" : 69,
            "type" : "VEC3"
        },
        {
            "bufferView" : 19,
            "componentType" : 5126,
            "count" : 69,
            "type" : "VEC4"
        },
        {
            "bufferView" : 20,
            "componentType" : 5126,
            "count" : 69,
            "type" : "VEC3"
        },
        {
            "bufferView" : 21,
            "componentType" : 5126,
            "count" : 69,
            "type" : "VEC3"
        },
        {
            "bufferView" : 22,
            "componentType" : 5126,
            "count" : 69,
            "type" : "VEC4"
        },
        {
            "bufferView" : 23,
            "componentType" : 5126,
            "count" : 69,
            "type" : "VEC3"
        },
        {
            "bufferView" : 24,
            "componentType" : 5126,
            "count" : 69,
            "type" : "VEC3"
        },
        {
            "bufferView" : 25,
            "componentType" : 5126,
            "count" : 69,
            "type" : "VEC4"
        },
        {
            "bufferView" : 26,
            "componentType" : 5126,
            "count" : 69,
            "type" : "VEC3"
        },
        {
            "bufferView" : 27,
            "componentType" : 5126,
            "count" : 69,
            "type" : "VEC3"
        },
        {
            "bufferView" : 28,
            "componentType" : 5126,
            "count" : 69,
            "type" : "VEC4"
        },
        {
            "bufferView" : 29,
            "componentType" : 5126,
            "count" : 69,
            "type" : "VEC3"
        }
    ],
    "bufferViews" : [
        {
            "buffer" : 0,
            "byteLength" : 25848,
            "byteOffset" : 0
        },
        {
            "buffer" : 0,
            "byteLength" : 25848,
            "byteOffset" : 25848
        },
        {
            "buffer" : 0,
            "byteLength" : 17232,
            "byteOffset" : 51696
        },
        {
            "buffer" : 0,
            "byteLength" : 17232,
            "byteOffset" : 68928
        },
        {
            "buffer" : 0,
            "byteLength" : 34464,
            "byteOffset" : 86160
        },
        {
            "buffer" : 0,
            "byteLength" : 4308,
            "byteOffset" : 120624
        },
        {
            "buffer" : 0,
            "byteLength" : 290616,
            "byteOffset" : 124932
        },
        {
            "buffer" : 0,
            "byteLength" : 448,
            "byteOffset" : 415548
        },
        {
            "buffer" : 0,
            "byteLength" : 276,
            "byteOffset" : 415996
        },
        {
            "buffer" : 0,
            "byteLength" : 828,
            "byteOffset" : 416272
        },
        {
            "buffer" : 0,
            "byteLength" : 1104,
            "byteOffset" : 417100
        },
        {
            "buffer" : 0,
            "byteLength" : 828,
            "byteOffset" : 418204
        },
        {
            "buffer" : 0,
            "byteLength" : 828,
            "byteOffset" : 419032
        },
        {
            "buffer" : 0,
            "byteLength" : 1104,
            "byteOffset" : 419860
        },
        {
            "buffer" : 0,
            "byteLength" : 828,
            "byteOffset" : 420964
        },
        {
            "buffer" : 0,
            "byteLength" : 828,
            "byteOffset" : 421792
        },
        {
            "buffer" : 0,
            "byteLength" : 1104,
            "byteOffset" : 422620
        },
        {
            "buffer" : 0,
            "byteLength" : 828,
            "byteOffset" : 423724
        },
        {
            "buffer" : 0,
            "byteLength" : 828,
            "byteOffset" : 424552
        },
        {
            "buffer" : 0,
            "byteLength" : 1104,
            "byteOffset" : 425380
        },
        {
            "buffer" : 0,
            "byteLength" : 828,
            "byteOffset" : 426484
        },
        {
            "buffer" : 0,
            "byteLength" : 828,
            "byteOffset" : 427312
        },
        {
            "buffer" : 0,
            "byteLength" : 1104,
            "byteOffset" : 428140
        },
        {
            "buffer" : 0,
            "byteLength" : 828,
            "byteOffset" : 429244
        },
        {
            "buffer" : 0,
            "byteLength" : 828,
            "byteOffset" : 430072
        },
        {
            "buffer" : 0,
            "byteLength" : 1104,
            "byteOffset" : 430900
        },
        {
            "buffer" : 0,
            "byteLength" : 828,
            "byteOffset" : 432004
        },
        {
            "buffer" : 0,
            "byteLength" : 828,
            "byteOffset" : 432832
        },
        {
            "buffer" : 0,
            "byteLength" : 1104,
            "byteOffset" : 433660
        },
        {
            "buffer" : 0,
            "byteLength" : 828,
            "byteOffset" : 434764
        }
    ],
    "buffers" : [
        {
            "byteLength" : 435592,
            "uri" : "data:application/octet-stream;base64,"
        }
    ]
}
